<mxfile host="drawio-plugin" modified="2021-07-12T08:11:15.939Z" agent="5.0 (Macintosh; Intel Mac OS X 11_4_0) AppleWebKit/537.36 (KHTML, like Gecko) Chrome/87.0.4280.141 Safari/537.36" etag="XU58q30Vtkn3-QrCyIth" version="14.7.4" type="embed"><diagram id="KKbWjFpT9_jjhkG3J2hj" name="Page-1"><mxGraphModel dx="935" dy="881" grid="1" gridSize="10" guides="1" tooltips="1" connect="1" arrows="1" fold="1" page="1" pageScale="1" pageWidth="850" pageHeight="1100" math="0" shadow="0"><root><mxCell id="0"/><mxCell id="1" parent="0"/><mxCell id="j5Hd4J-1RK4JvleLE7IY-1" value="SinhVien" style="shape=table;startSize=30;container=1;collapsible=1;childLayout=tableLayout;fixedRows=1;rowLines=0;fontStyle=1;align=center;resizeLast=1;" parent="1" vertex="1"><mxGeometry x="550" y="340" width="180" height="160" as="geometry"/></mxCell><mxCell id="j5Hd4J-1RK4JvleLE7IY-2" value="" style="shape=partialRectangle;collapsible=0;dropTarget=0;pointerEvents=0;fillColor=none;top=0;left=0;bottom=1;right=0;points=[[0,0.5],[1,0.5]];portConstraint=eastwest;" parent="j5Hd4J-1RK4JvleLE7IY-1" vertex="1"><mxGeometry y="30" width="180" height="30" as="geometry"/></mxCell><mxCell id="j5Hd4J-1RK4JvleLE7IY-3" value="PK" style="shape=partialRectangle;connectable=0;fillColor=none;top=0;left=0;bottom=0;right=0;fontStyle=1;overflow=hidden;" parent="j5Hd4J-1RK4JvleLE7IY-2" vertex="1"><mxGeometry width="30" height="30" as="geometry"/></mxCell><mxCell id="j5Hd4J-1RK4JvleLE7IY-4" value="maSV" style="shape=partialRectangle;connectable=0;fillColor=none;top=0;left=0;bottom=0;right=0;align=left;spacingLeft=6;fontStyle=5;overflow=hidden;" parent="j5Hd4J-1RK4JvleLE7IY-2" vertex="1"><mxGeometry x="30" width="150" height="30" as="geometry"/></mxCell><mxCell id="j5Hd4J-1RK4JvleLE7IY-5" value="" style="shape=partialRectangle;collapsible=0;dropTarget=0;pointerEvents=0;fillColor=none;top=0;left=0;bottom=0;right=0;points=[[0,0.5],[1,0.5]];portConstraint=eastwest;" parent="j5Hd4J-1RK4JvleLE7IY-1" vertex="1"><mxGeometry y="60" width="180" height="30" as="geometry"/></mxCell><mxCell id="j5Hd4J-1RK4JvleLE7IY-6" value="" style="shape=partialRectangle;connectable=0;fillColor=none;top=0;left=0;bottom=0;right=0;editable=1;overflow=hidden;" parent="j5Hd4J-1RK4JvleLE7IY-5" vertex="1"><mxGeometry width="30" height="30" as="geometry"/></mxCell><mxCell id="j5Hd4J-1RK4JvleLE7IY-7" value="tenSV" style="shape=partialRectangle;connectable=0;fillColor=none;top=0;left=0;bottom=0;right=0;align=left;spacingLeft=6;overflow=hidden;" parent="j5Hd4J-1RK4JvleLE7IY-5" vertex="1"><mxGeometry x="30" width="150" height="30" as="geometry"/></mxCell><mxCell id="j5Hd4J-1RK4JvleLE7IY-8" value="" style="shape=partialRectangle;collapsible=0;dropTarget=0;pointerEvents=0;fillColor=none;top=0;left=0;bottom=0;right=0;points=[[0,0.5],[1,0.5]];portConstraint=eastwest;" parent="j5Hd4J-1RK4JvleLE7IY-1" vertex="1"><mxGeometry y="90" width="180" height="30" as="geometry"/></mxCell><mxCell id="j5Hd4J-1RK4JvleLE7IY-9" value="" style="shape=partialRectangle;connectable=0;fillColor=none;top=0;left=0;bottom=0;right=0;editable=1;overflow=hidden;" parent="j5Hd4J-1RK4JvleLE7IY-8" vertex="1"><mxGeometry width="30" height="30" as="geometry"/></mxCell><mxCell id="j5Hd4J-1RK4JvleLE7IY-10" value="ngaySinh" style="shape=partialRectangle;connectable=0;fillColor=none;top=0;left=0;bottom=0;right=0;align=left;spacingLeft=6;overflow=hidden;" parent="j5Hd4J-1RK4JvleLE7IY-8" vertex="1"><mxGeometry x="30" width="150" height="30" as="geometry"/></mxCell><mxCell id="j5Hd4J-1RK4JvleLE7IY-11" value="" style="shape=partialRectangle;collapsible=0;dropTarget=0;pointerEvents=0;fillColor=none;top=0;left=0;bottom=0;right=0;points=[[0,0.5],[1,0.5]];portConstraint=eastwest;" parent="j5Hd4J-1RK4JvleLE7IY-1" vertex="1"><mxGeometry y="120" width="180" height="30" as="geometry"/></mxCell><mxCell id="j5Hd4J-1RK4JvleLE7IY-12" value="" style="shape=partialRectangle;connectable=0;fillColor=none;top=0;left=0;bottom=0;right=0;editable=1;overflow=hidden;" parent="j5Hd4J-1RK4JvleLE7IY-11" vertex="1"><mxGeometry width="30" height="30" as="geometry"/></mxCell><mxCell id="j5Hd4J-1RK4JvleLE7IY-13" value="sdt" style="shape=partialRectangle;connectable=0;fillColor=none;top=0;left=0;bottom=0;right=0;align=left;spacingLeft=6;overflow=hidden;" parent="j5Hd4J-1RK4JvleLE7IY-11" vertex="1"><mxGeometry x="30" width="150" height="30" as="geometry"/></mxCell><mxCell id="j5Hd4J-1RK4JvleLE7IY-14" value="Sach" style="shape=table;startSize=30;container=1;collapsible=1;childLayout=tableLayout;fixedRows=1;rowLines=0;fontStyle=1;align=center;resizeLast=1;" parent="1" vertex="1"><mxGeometry x="790" y="340" width="180" height="160" as="geometry"><mxRectangle x="430" y="150" width="60" height="30" as="alternateBounds"/></mxGeometry></mxCell><mxCell id="j5Hd4J-1RK4JvleLE7IY-15" value="" style="shape=partialRectangle;collapsible=0;dropTarget=0;pointerEvents=0;fillColor=none;top=0;left=0;bottom=1;right=0;points=[[0,0.5],[1,0.5]];portConstraint=eastwest;" parent="j5Hd4J-1RK4JvleLE7IY-14" vertex="1"><mxGeometry y="30" width="180" height="30" as="geometry"/></mxCell><mxCell id="j5Hd4J-1RK4JvleLE7IY-16" value="PK" style="shape=partialRectangle;connectable=0;fillColor=none;top=0;left=0;bottom=0;right=0;fontStyle=1;overflow=hidden;" parent="j5Hd4J-1RK4JvleLE7IY-15" vertex="1"><mxGeometry width="30" height="30" as="geometry"/></mxCell><mxCell id="j5Hd4J-1RK4JvleLE7IY-17" value="maSach" style="shape=partialRectangle;connectable=0;fillColor=none;top=0;left=0;bottom=0;right=0;align=left;spacingLeft=6;fontStyle=5;overflow=hidden;" parent="j5Hd4J-1RK4JvleLE7IY-15" vertex="1"><mxGeometry x="30" width="150" height="30" as="geometry"/></mxCell><mxCell id="j5Hd4J-1RK4JvleLE7IY-18" value="" style="shape=partialRectangle;collapsible=0;dropTarget=0;pointerEvents=0;fillColor=none;top=0;left=0;bottom=0;right=0;points=[[0,0.5],[1,0.5]];portConstraint=eastwest;" parent="j5Hd4J-1RK4JvleLE7IY-14" vertex="1"><mxGeometry y="60" width="180" height="30" as="geometry"/></mxCell><mxCell id="j5Hd4J-1RK4JvleLE7IY-19" value="" style="shape=partialRectangle;connectable=0;fillColor=none;top=0;left=0;bottom=0;right=0;editable=1;overflow=hidden;" parent="j5Hd4J-1RK4JvleLE7IY-18" vertex="1"><mxGeometry width="30" height="30" as="geometry"/></mxCell><mxCell id="j5Hd4J-1RK4JvleLE7IY-20" value="tenSach" style="shape=partialRectangle;connectable=0;fillColor=none;top=0;left=0;bottom=0;right=0;align=left;spacingLeft=6;overflow=hidden;" parent="j5Hd4J-1RK4JvleLE7IY-18" vertex="1"><mxGeometry x="30" width="150" height="30" as="geometry"/></mxCell><mxCell id="j5Hd4J-1RK4JvleLE7IY-21" value="" style="shape=partialRectangle;collapsible=0;dropTarget=0;pointerEvents=0;fillColor=none;top=0;left=0;bottom=0;right=0;points=[[0,0.5],[1,0.5]];portConstraint=eastwest;" parent="j5Hd4J-1RK4JvleLE7IY-14" vertex="1"><mxGeometry y="90" width="180" height="30" as="geometry"/></mxCell><mxCell id="j5Hd4J-1RK4JvleLE7IY-22" value="" style="shape=partialRectangle;connectable=0;fillColor=none;top=0;left=0;bottom=0;right=0;editable=1;overflow=hidden;" parent="j5Hd4J-1RK4JvleLE7IY-21" vertex="1"><mxGeometry width="30" height="30" as="geometry"/></mxCell><mxCell id="j5Hd4J-1RK4JvleLE7IY-23" value="thongTinKhac" style="shape=partialRectangle;connectable=0;fillColor=none;top=0;left=0;bottom=0;right=0;align=left;spacingLeft=6;overflow=hidden;" parent="j5Hd4J-1RK4JvleLE7IY-21" vertex="1"><mxGeometry x="30" width="150" height="30" as="geometry"/></mxCell><mxCell id="j5Hd4J-1RK4JvleLE7IY-24" value="" style="shape=partialRectangle;collapsible=0;dropTarget=0;pointerEvents=0;fillColor=none;top=0;left=0;bottom=0;right=0;points=[[0,0.5],[1,0.5]];portConstraint=eastwest;" parent="j5Hd4J-1RK4JvleLE7IY-14" vertex="1"><mxGeometry y="120" width="180" height="30" as="geometry"/></mxCell><mxCell id="j5Hd4J-1RK4JvleLE7IY-25" value="FK" style="shape=partialRectangle;connectable=0;fillColor=none;top=0;left=0;bottom=0;right=0;editable=1;overflow=hidden;" parent="j5Hd4J-1RK4JvleLE7IY-24" vertex="1"><mxGeometry width="30" height="30" as="geometry"/></mxCell><mxCell id="j5Hd4J-1RK4JvleLE7IY-26" value="theLoai" style="shape=partialRectangle;connectable=0;fillColor=none;top=0;left=0;bottom=0;right=0;align=left;spacingLeft=6;overflow=hidden;" parent="j5Hd4J-1RK4JvleLE7IY-24" vertex="1"><mxGeometry x="30" width="150" height="30" as="geometry"/></mxCell><mxCell id="j5Hd4J-1RK4JvleLE7IY-27" value="TheLoai" style="shape=table;startSize=30;container=1;collapsible=1;childLayout=tableLayout;fixedRows=1;rowLines=0;fontStyle=1;align=center;resizeLast=1;" parent="1" vertex="1"><mxGeometry x="300" y="340" width="180" height="160" as="geometry"/></mxCell><mxCell id="j5Hd4J-1RK4JvleLE7IY-28" value="" style="shape=partialRectangle;collapsible=0;dropTarget=0;pointerEvents=0;fillColor=none;top=0;left=0;bottom=1;right=0;points=[[0,0.5],[1,0.5]];portConstraint=eastwest;" parent="j5Hd4J-1RK4JvleLE7IY-27" vertex="1"><mxGeometry y="30" width="180" height="30" as="geometry"/></mxCell><mxCell id="j5Hd4J-1RK4JvleLE7IY-29" value="PK" style="shape=partialRectangle;connectable=0;fillColor=none;top=0;left=0;bottom=0;right=0;fontStyle=1;overflow=hidden;" parent="j5Hd4J-1RK4JvleLE7IY-28" vertex="1"><mxGeometry width="30" height="30" as="geometry"/></mxCell><mxCell id="j5Hd4J-1RK4JvleLE7IY-30" value="maTL" style="shape=partialRectangle;connectable=0;fillColor=none;top=0;left=0;bottom=0;right=0;align=left;spacingLeft=6;fontStyle=5;overflow=hidden;" parent="j5Hd4J-1RK4JvleLE7IY-28" vertex="1"><mxGeometry x="30" width="150" height="30" as="geometry"/></mxCell><mxCell id="j5Hd4J-1RK4JvleLE7IY-31" value="" style="shape=partialRectangle;collapsible=0;dropTarget=0;pointerEvents=0;fillColor=none;top=0;left=0;bottom=0;right=0;points=[[0,0.5],[1,0.5]];portConstraint=eastwest;" parent="j5Hd4J-1RK4JvleLE7IY-27" vertex="1"><mxGeometry y="60" width="180" height="30" as="geometry"/></mxCell><mxCell id="j5Hd4J-1RK4JvleLE7IY-32" value="" style="shape=partialRectangle;connectable=0;fillColor=none;top=0;left=0;bottom=0;right=0;editable=1;overflow=hidden;" parent="j5Hd4J-1RK4JvleLE7IY-31" vertex="1"><mxGeometry width="30" height="30" as="geometry"/></mxCell><mxCell id="j5Hd4J-1RK4JvleLE7IY-33" value="tenTL" style="shape=partialRectangle;connectable=0;fillColor=none;top=0;left=0;bottom=0;right=0;align=left;spacingLeft=6;overflow=hidden;" parent="j5Hd4J-1RK4JvleLE7IY-31" vertex="1"><mxGeometry x="30" width="150" height="30" as="geometry"/></mxCell><mxCell id="j5Hd4J-1RK4JvleLE7IY-34" value="" style="shape=partialRectangle;collapsible=0;dropTarget=0;pointerEvents=0;fillColor=none;top=0;left=0;bottom=0;right=0;points=[[0,0.5],[1,0.5]];portConstraint=eastwest;" parent="j5Hd4J-1RK4JvleLE7IY-27" vertex="1"><mxGeometry y="90" width="180" height="30" as="geometry"/></mxCell><mxCell id="j5Hd4J-1RK4JvleLE7IY-35" value="" style="shape=partialRectangle;connectable=0;fillColor=none;top=0;left=0;bottom=0;right=0;editable=1;overflow=hidden;" parent="j5Hd4J-1RK4JvleLE7IY-34" vertex="1"><mxGeometry width="30" height="30" as="geometry"/></mxCell><mxCell id="j5Hd4J-1RK4JvleLE7IY-36" value="thongTinKhac" style="shape=partialRectangle;connectable=0;fillColor=none;top=0;left=0;bottom=0;right=0;align=left;spacingLeft=6;overflow=hidden;" parent="j5Hd4J-1RK4JvleLE7IY-34" vertex="1"><mxGeometry x="30" width="150" height="30" as="geometry"/></mxCell><mxCell id="j5Hd4J-1RK4JvleLE7IY-37" value="" style="shape=partialRectangle;collapsible=0;dropTarget=0;pointerEvents=0;fillColor=none;top=0;left=0;bottom=0;right=0;points=[[0,0.5],[1,0.5]];portConstraint=eastwest;" parent="j5Hd4J-1RK4JvleLE7IY-27" vertex="1"><mxGeometry y="120" width="180" height="30" as="geometry"/></mxCell><mxCell id="j5Hd4J-1RK4JvleLE7IY-38" value="" style="shape=partialRectangle;connectable=0;fillColor=none;top=0;left=0;bottom=0;right=0;editable=1;overflow=hidden;" parent="j5Hd4J-1RK4JvleLE7IY-37" vertex="1"><mxGeometry width="30" height="30" as="geometry"/></mxCell><mxCell id="j5Hd4J-1RK4JvleLE7IY-39" value="" style="shape=partialRectangle;connectable=0;fillColor=none;top=0;left=0;bottom=0;right=0;align=left;spacingLeft=6;overflow=hidden;" parent="j5Hd4J-1RK4JvleLE7IY-37" vertex="1"><mxGeometry x="30" width="150" height="30" as="geometry"/></mxCell><mxCell id="j5Hd4J-1RK4JvleLE7IY-40" value="PhieuMuon" style="shape=table;startSize=30;container=1;collapsible=1;childLayout=tableLayout;fixedRows=1;rowLines=0;fontStyle=1;align=center;resizeLast=1;" parent="1" vertex="1"><mxGeometry x="50" y="310" width="180" height="190" as="geometry"/></mxCell><mxCell id="j5Hd4J-1RK4JvleLE7IY-41" value="" style="shape=partialRectangle;collapsible=0;dropTarget=0;pointerEvents=0;fillColor=none;top=0;left=0;bottom=1;right=0;points=[[0,0.5],[1,0.5]];portConstraint=eastwest;" parent="j5Hd4J-1RK4JvleLE7IY-40" vertex="1"><mxGeometry y="30" width="180" height="30" as="geometry"/></mxCell><mxCell id="j5Hd4J-1RK4JvleLE7IY-42" value="PK" style="shape=partialRectangle;connectable=0;fillColor=none;top=0;left=0;bottom=0;right=0;fontStyle=1;overflow=hidden;" parent="j5Hd4J-1RK4JvleLE7IY-41" vertex="1"><mxGeometry width="30" height="30" as="geometry"/></mxCell><mxCell id="j5Hd4J-1RK4JvleLE7IY-43" value="maPhieu" style="shape=partialRectangle;connectable=0;fillColor=none;top=0;left=0;bottom=0;right=0;align=left;spacingLeft=6;fontStyle=5;overflow=hidden;" parent="j5Hd4J-1RK4JvleLE7IY-41" vertex="1"><mxGeometry x="30" width="150" height="30" as="geometry"/></mxCell><mxCell id="j5Hd4J-1RK4JvleLE7IY-44" value="" style="shape=partialRectangle;collapsible=0;dropTarget=0;pointerEvents=0;fillColor=none;top=0;left=0;bottom=0;right=0;points=[[0,0.5],[1,0.5]];portConstraint=eastwest;" parent="j5Hd4J-1RK4JvleLE7IY-40" vertex="1"><mxGeometry y="60" width="180" height="30" as="geometry"/></mxCell><mxCell id="j5Hd4J-1RK4JvleLE7IY-45" value="FK" style="shape=partialRectangle;connectable=0;fillColor=none;top=0;left=0;bottom=0;right=0;editable=1;overflow=hidden;" parent="j5Hd4J-1RK4JvleLE7IY-44" vertex="1"><mxGeometry width="30" height="30" as="geometry"/></mxCell><mxCell id="j5Hd4J-1RK4JvleLE7IY-46" value="maSV" style="shape=partialRectangle;connectable=0;fillColor=none;top=0;left=0;bottom=0;right=0;align=left;spacingLeft=6;overflow=hidden;" parent="j5Hd4J-1RK4JvleLE7IY-44" vertex="1"><mxGeometry x="30" width="150" height="30" as="geometry"/></mxCell><mxCell id="j5Hd4J-1RK4JvleLE7IY-47" value="" style="shape=partialRectangle;collapsible=0;dropTarget=0;pointerEvents=0;fillColor=none;top=0;left=0;bottom=0;right=0;points=[[0,0.5],[1,0.5]];portConstraint=eastwest;" parent="j5Hd4J-1RK4JvleLE7IY-40" vertex="1"><mxGeometry y="90" width="180" height="30" as="geometry"/></mxCell><mxCell id="j5Hd4J-1RK4JvleLE7IY-48" value="FK" style="shape=partialRectangle;connectable=0;fillColor=none;top=0;left=0;bottom=0;right=0;editable=1;overflow=hidden;" parent="j5Hd4J-1RK4JvleLE7IY-47" vertex="1"><mxGeometry width="30" height="30" as="geometry"/></mxCell><mxCell id="j5Hd4J-1RK4JvleLE7IY-49" value="maSach" style="shape=partialRectangle;connectable=0;fillColor=none;top=0;left=0;bottom=0;right=0;align=left;spacingLeft=6;overflow=hidden;" parent="j5Hd4J-1RK4JvleLE7IY-47" vertex="1"><mxGeometry x="30" width="150" height="30" as="geometry"/></mxCell><mxCell id="j5Hd4J-1RK4JvleLE7IY-50" value="" style="shape=partialRectangle;collapsible=0;dropTarget=0;pointerEvents=0;fillColor=none;top=0;left=0;bottom=0;right=0;points=[[0,0.5],[1,0.5]];portConstraint=eastwest;" parent="j5Hd4J-1RK4JvleLE7IY-40" vertex="1"><mxGeometry y="120" width="180" height="30" as="geometry"/></mxCell><mxCell id="j5Hd4J-1RK4JvleLE7IY-51" value="" style="shape=partialRectangle;connectable=0;fillColor=none;top=0;left=0;bottom=0;right=0;editable=1;overflow=hidden;" parent="j5Hd4J-1RK4JvleLE7IY-50" vertex="1"><mxGeometry width="30" height="30" as="geometry"/></mxCell><mxCell id="j5Hd4J-1RK4JvleLE7IY-52" value="ngayMuon" style="shape=partialRectangle;connectable=0;fillColor=none;top=0;left=0;bottom=0;right=0;align=left;spacingLeft=6;overflow=hidden;" parent="j5Hd4J-1RK4JvleLE7IY-50" vertex="1"><mxGeometry x="30" width="150" height="30" as="geometry"/></mxCell><mxCell id="j5Hd4J-1RK4JvleLE7IY-69" value="" style="shape=partialRectangle;collapsible=0;dropTarget=0;pointerEvents=0;fillColor=none;top=0;left=0;bottom=0;right=0;points=[[0,0.5],[1,0.5]];portConstraint=eastwest;" parent="j5Hd4J-1RK4JvleLE7IY-40" vertex="1"><mxGeometry y="150" width="180" height="30" as="geometry"/></mxCell><mxCell id="j5Hd4J-1RK4JvleLE7IY-70" value="" style="shape=partialRectangle;connectable=0;fillColor=none;top=0;left=0;bottom=0;right=0;editable=1;overflow=hidden;" parent="j5Hd4J-1RK4JvleLE7IY-69" vertex="1"><mxGeometry width="30" height="30" as="geometry"/></mxCell><mxCell id="j5Hd4J-1RK4JvleLE7IY-71" value="ngayTra" style="shape=partialRectangle;connectable=0;fillColor=none;top=0;left=0;bottom=0;right=0;align=left;spacingLeft=6;overflow=hidden;" parent="j5Hd4J-1RK4JvleLE7IY-69" vertex="1"><mxGeometry x="30" width="150" height="30" as="geometry"/></mxCell><mxCell id="j5Hd4J-1RK4JvleLE7IY-78" value="SinhVien" style="whiteSpace=wrap;html=1;align=center;" parent="1" vertex="1"><mxGeometry x="160" y="1000" width="100" height="40" as="geometry"/></mxCell><mxCell id="j5Hd4J-1RK4JvleLE7IY-86" style="rounded=0;orthogonalLoop=1;jettySize=auto;html=1;exitX=0;exitY=0.5;exitDx=0;exitDy=0;entryX=1;entryY=0.5;entryDx=0;entryDy=0;endArrow=none;endFill=0;" parent="1" source="j5Hd4J-1RK4JvleLE7IY-79" target="j5Hd4J-1RK4JvleLE7IY-78" edge="1"><mxGeometry relative="1" as="geometry"/></mxCell><mxCell id="j5Hd4J-1RK4JvleLE7IY-79" value="maSV" style="ellipse;whiteSpace=wrap;html=1;align=center;fontStyle=4;" parent="1" vertex="1"><mxGeometry x="350" y="890" width="100" height="40" as="geometry"/></mxCell><mxCell id="j5Hd4J-1RK4JvleLE7IY-87" style="rounded=0;orthogonalLoop=1;jettySize=auto;html=1;exitX=0;exitY=0.5;exitDx=0;exitDy=0;entryX=1;entryY=0.5;entryDx=0;entryDy=0;endArrow=none;endFill=0;" parent="1" source="j5Hd4J-1RK4JvleLE7IY-80" target="j5Hd4J-1RK4JvleLE7IY-78" edge="1"><mxGeometry relative="1" as="geometry"/></mxCell><mxCell id="j5Hd4J-1RK4JvleLE7IY-80" value="tenSV" style="ellipse;whiteSpace=wrap;html=1;align=center;" parent="1" vertex="1"><mxGeometry x="350" y="970" width="100" height="40" as="geometry"/></mxCell><mxCell id="j5Hd4J-1RK4JvleLE7IY-88" style="rounded=0;orthogonalLoop=1;jettySize=auto;html=1;exitX=0;exitY=0.5;exitDx=0;exitDy=0;entryX=1;entryY=0.5;entryDx=0;entryDy=0;endArrow=none;endFill=0;" parent="1" source="j5Hd4J-1RK4JvleLE7IY-81" target="j5Hd4J-1RK4JvleLE7IY-78" edge="1"><mxGeometry relative="1" as="geometry"/></mxCell><mxCell id="j5Hd4J-1RK4JvleLE7IY-81" value="ngaySinh" style="ellipse;whiteSpace=wrap;html=1;align=center;" parent="1" vertex="1"><mxGeometry x="350" y="1040" width="100" height="40" as="geometry"/></mxCell><mxCell id="j5Hd4J-1RK4JvleLE7IY-89" style="rounded=0;orthogonalLoop=1;jettySize=auto;html=1;exitX=0;exitY=0.5;exitDx=0;exitDy=0;entryX=1;entryY=0.5;entryDx=0;entryDy=0;endArrow=none;endFill=0;" parent="1" source="j5Hd4J-1RK4JvleLE7IY-82" target="j5Hd4J-1RK4JvleLE7IY-78" edge="1"><mxGeometry relative="1" as="geometry"/></mxCell><mxCell id="j5Hd4J-1RK4JvleLE7IY-82" value="sdt" style="ellipse;whiteSpace=wrap;html=1;align=center;" parent="1" vertex="1"><mxGeometry x="350" y="1110" width="100" height="40" as="geometry"/></mxCell><mxCell id="j5Hd4J-1RK4JvleLE7IY-90" value="Sach" style="whiteSpace=wrap;html=1;align=center;" parent="1" vertex="1"><mxGeometry x="480" y="740" width="100" height="40" as="geometry"/></mxCell><mxCell id="j5Hd4J-1RK4JvleLE7IY-91" style="rounded=0;orthogonalLoop=1;jettySize=auto;html=1;exitX=0;exitY=0.5;exitDx=0;exitDy=0;entryX=1;entryY=0.5;entryDx=0;entryDy=0;endArrow=none;endFill=0;" parent="1" source="j5Hd4J-1RK4JvleLE7IY-92" target="j5Hd4J-1RK4JvleLE7IY-90" edge="1"><mxGeometry relative="1" as="geometry"/></mxCell><mxCell id="j5Hd4J-1RK4JvleLE7IY-92" value="maSach" style="ellipse;whiteSpace=wrap;html=1;align=center;fontStyle=4;" parent="1" vertex="1"><mxGeometry x="640" y="655" width="100" height="40" as="geometry"/></mxCell><mxCell id="j5Hd4J-1RK4JvleLE7IY-93" style="rounded=0;orthogonalLoop=1;jettySize=auto;html=1;exitX=0;exitY=0.5;exitDx=0;exitDy=0;entryX=1;entryY=0.5;entryDx=0;entryDy=0;endArrow=none;endFill=0;" parent="1" source="j5Hd4J-1RK4JvleLE7IY-94" target="j5Hd4J-1RK4JvleLE7IY-90" edge="1"><mxGeometry relative="1" as="geometry"/></mxCell><mxCell id="j5Hd4J-1RK4JvleLE7IY-94" value="tenSach" style="ellipse;whiteSpace=wrap;html=1;align=center;" parent="1" vertex="1"><mxGeometry x="640" y="725" width="100" height="40" as="geometry"/></mxCell><mxCell id="j5Hd4J-1RK4JvleLE7IY-95" style="rounded=0;orthogonalLoop=1;jettySize=auto;html=1;exitX=0;exitY=0.5;exitDx=0;exitDy=0;entryX=1;entryY=0.5;entryDx=0;entryDy=0;endArrow=none;endFill=0;" parent="1" source="j5Hd4J-1RK4JvleLE7IY-96" target="j5Hd4J-1RK4JvleLE7IY-90" edge="1"><mxGeometry relative="1" as="geometry"/></mxCell><mxCell id="j5Hd4J-1RK4JvleLE7IY-96" value="thongTinKhac" style="ellipse;whiteSpace=wrap;html=1;align=center;" parent="1" vertex="1"><mxGeometry x="640" y="805" width="100" height="40" as="geometry"/></mxCell><mxCell id="j5Hd4J-1RK4JvleLE7IY-99" value="PhieuMuon" style="whiteSpace=wrap;html=1;align=center;" parent="1" vertex="1"><mxGeometry x="230" y="740" width="100" height="40" as="geometry"/></mxCell><mxCell id="j5Hd4J-1RK4JvleLE7IY-100" style="rounded=0;orthogonalLoop=1;jettySize=auto;html=1;exitX=1;exitY=0.5;exitDx=0;exitDy=0;entryX=0;entryY=0.5;entryDx=0;entryDy=0;endArrow=none;endFill=0;" parent="1" source="j5Hd4J-1RK4JvleLE7IY-101" target="j5Hd4J-1RK4JvleLE7IY-99" edge="1"><mxGeometry relative="1" as="geometry"/></mxCell><mxCell id="j5Hd4J-1RK4JvleLE7IY-101" value="maPhieu" style="ellipse;whiteSpace=wrap;html=1;align=center;fontStyle=4;" parent="1" vertex="1"><mxGeometry x="90" y="650" width="100" height="40" as="geometry"/></mxCell><mxCell id="j5Hd4J-1RK4JvleLE7IY-106" style="rounded=0;orthogonalLoop=1;jettySize=auto;html=1;exitX=1;exitY=0.5;exitDx=0;exitDy=0;entryX=0;entryY=0.5;entryDx=0;entryDy=0;endArrow=none;endFill=0;" parent="1" source="j5Hd4J-1RK4JvleLE7IY-107" target="j5Hd4J-1RK4JvleLE7IY-99" edge="1"><mxGeometry relative="1" as="geometry"/></mxCell><mxCell id="j5Hd4J-1RK4JvleLE7IY-107" value="ngayMuon" style="ellipse;whiteSpace=wrap;html=1;align=center;" parent="1" vertex="1"><mxGeometry x="70" y="730" width="100" height="40" as="geometry"/></mxCell><mxCell id="j5Hd4J-1RK4JvleLE7IY-108" value="TheLoai" style="whiteSpace=wrap;html=1;align=center;" parent="1" vertex="1"><mxGeometry x="590" y="1010" width="100" height="40" as="geometry"/></mxCell><mxCell id="j5Hd4J-1RK4JvleLE7IY-109" style="rounded=0;orthogonalLoop=1;jettySize=auto;html=1;exitX=0;exitY=0.5;exitDx=0;exitDy=0;entryX=1;entryY=0.5;entryDx=0;entryDy=0;endArrow=none;endFill=0;" parent="1" source="j5Hd4J-1RK4JvleLE7IY-110" target="j5Hd4J-1RK4JvleLE7IY-108" edge="1"><mxGeometry relative="1" as="geometry"/></mxCell><mxCell id="j5Hd4J-1RK4JvleLE7IY-110" value="maTL" style="ellipse;whiteSpace=wrap;html=1;align=center;fontStyle=4;" parent="1" vertex="1"><mxGeometry x="730" y="935" width="100" height="40" as="geometry"/></mxCell><mxCell id="j5Hd4J-1RK4JvleLE7IY-111" style="rounded=0;orthogonalLoop=1;jettySize=auto;html=1;exitX=0;exitY=0.5;exitDx=0;exitDy=0;entryX=1;entryY=0.5;entryDx=0;entryDy=0;endArrow=none;endFill=0;" parent="1" source="j5Hd4J-1RK4JvleLE7IY-112" target="j5Hd4J-1RK4JvleLE7IY-108" edge="1"><mxGeometry relative="1" as="geometry"/></mxCell><mxCell id="j5Hd4J-1RK4JvleLE7IY-112" value="tenTL" style="ellipse;whiteSpace=wrap;html=1;align=center;" parent="1" vertex="1"><mxGeometry x="730" y="1005" width="100" height="40" as="geometry"/></mxCell><mxCell id="j5Hd4J-1RK4JvleLE7IY-113" style="rounded=0;orthogonalLoop=1;jettySize=auto;html=1;exitX=0;exitY=0.5;exitDx=0;exitDy=0;entryX=1;entryY=0.5;entryDx=0;entryDy=0;endArrow=none;endFill=0;" parent="1" source="j5Hd4J-1RK4JvleLE7IY-114" target="j5Hd4J-1RK4JvleLE7IY-108" edge="1"><mxGeometry relative="1" as="geometry"/></mxCell><mxCell id="j5Hd4J-1RK4JvleLE7IY-114" value="thongTinKhac" style="ellipse;whiteSpace=wrap;html=1;align=center;" parent="1" vertex="1"><mxGeometry x="730" y="1085" width="100" height="40" as="geometry"/></mxCell><mxCell id="j5Hd4J-1RK4JvleLE7IY-118" style="edgeStyle=none;rounded=0;orthogonalLoop=1;jettySize=auto;html=1;exitX=1;exitY=0.5;exitDx=0;exitDy=0;entryX=0;entryY=0.5;entryDx=0;entryDy=0;endArrow=none;endFill=0;" parent="1" source="j5Hd4J-1RK4JvleLE7IY-117" target="j5Hd4J-1RK4JvleLE7IY-99" edge="1"><mxGeometry relative="1" as="geometry"/></mxCell><mxCell id="j5Hd4J-1RK4JvleLE7IY-117" value="ngayTra" style="ellipse;whiteSpace=wrap;html=1;align=center;" parent="1" vertex="1"><mxGeometry x="70" y="810" width="100" height="40" as="geometry"/></mxCell><mxCell id="j5Hd4J-1RK4JvleLE7IY-119" value="" style="fontSize=12;html=1;endArrow=ERzeroToMany;startArrow=ERmandOne;exitX=0;exitY=0;exitDx=0;exitDy=0;" parent="1" source="j5Hd4J-1RK4JvleLE7IY-108" edge="1"><mxGeometry width="100" height="100" relative="1" as="geometry"><mxPoint x="630" y="1060" as="sourcePoint"/><mxPoint x="530" y="780" as="targetPoint"/></mxGeometry></mxCell><mxCell id="j5Hd4J-1RK4JvleLE7IY-123" value="" style="fontSize=12;html=1;endArrow=ERzeroToMany;startArrow=ERmandOne;entryX=0.5;entryY=1;entryDx=0;entryDy=0;exitX=0.5;exitY=0;exitDx=0;exitDy=0;" parent="1" source="j5Hd4J-1RK4JvleLE7IY-78" target="j5Hd4J-1RK4JvleLE7IY-99" edge="1"><mxGeometry width="100" height="100" relative="1" as="geometry"><mxPoint x="600" y="1020" as="sourcePoint"/><mxPoint x="540" y="790" as="targetPoint"/></mxGeometry></mxCell><mxCell id="2" value="" style="edgeStyle=entityRelationEdgeStyle;fontSize=12;html=1;endArrow=ERzeroToMany;startArrow=ERmandOne;entryX=1;entryY=0.5;entryDx=0;entryDy=0;exitX=0;exitY=0.5;exitDx=0;exitDy=0;" edge="1" parent="1" source="j5Hd4J-1RK4JvleLE7IY-90" target="j5Hd4J-1RK4JvleLE7IY-99"><mxGeometry width="100" height="100" relative="1" as="geometry"><mxPoint x="410" y="790" as="sourcePoint"/><mxPoint x="530" y="450" as="targetPoint"/></mxGeometry></mxCell></root></mxGraphModel></diagram></mxfile>